<svg width="1600" height="1200" viewBox="0 0 1600 1200" fill="none" xmlns="http://www.w3.org/2000/svg">
<path d="M225.1 406.6C242.9 392.1 267 390 289 394C312.5 398.2 333.9 409.5 355.6 419C378 428.9 400.8 436 425.4 437.2C449.9 438.5 474.4 435 498.2 429C547.9 416.5 593.5 392.5 641.2 374.4C665.1 365.3 689.8 357.4 715.2 353.8C729 351.8 742.9 351.3 756.8 352.8C770 354.2 782.9 357.3 795.8 360.5C824.3 367.6 852.7 373.8 881.9 377.3C912 380.9 942.4 382.1 972.7 381.1C974.6 381 974.6 378 972.7 378.1C917.7 380.1 862.7 374.2 809.3 360.9C783.8 354.5 758.5 347.9 732 349.2C706.3 350.5 680.9 357.3 656.7 365.6C608.2 382.3 562.6 406.8 513.4 421.7C488.4 429.2 462.5 434.4 436.3 434.5C409.7 434.6 384.7 428.4 360.4 417.8C336.4 407.4 312.9 394.5 286.8 390.5C264.6 387.1 240.9 389.8 223 404.4C221.5 405.7 223.6 407.9 225.1 406.6Z" fill="#E8E8E8"/>
<path d="M763.7 315.2C833 345.1 911.7 340.1 982.6 318.4C1021 306.6 1059.2 290.8 1100.1 290.9C1141.3 291 1180.4 305.4 1220.7 311.8C1257.3 317.6 1297.6 316.9 1329 294.9C1330.6 293.8 1329.1 291.2 1327.5 292.3C1298.5 312.6 1261.7 314.4 1227.7 309.8C1189.2 304.6 1152.2 291.2 1113.3 288.4C1074.4 285.6 1037.7 297.3 1001.2 309.3C964.8 321.2 928 330.5 889.7 332.7C847.3 335.2 804.4 329.5 765.3 312.6C763.5 311.8 762 314.4 763.7 315.2Z" fill="#E8E8E8"/>
<path d="M186.9 564.5C208.8 548.9 234.7 539.3 261.5 536.7C274.9 535.4 288.4 535.9 301.6 538.2C315.3 540.6 328.5 545.2 341.6 549.8C365.9 558.2 390 564.6 415.6 558.7C437.7 553.6 457.7 542.1 477.3 531.2C500.4 518.3 524.4 505.1 551.2 502.7C553.1 502.5 553.1 499.5 551.2 499.7C503.4 504 467.5 539.9 422.9 553.6C411.6 557.1 399.8 558.9 388 558.2C373.5 557.3 359.4 552.8 345.8 548.1C332.1 543.4 318.4 538.3 304 535.6C291.6 533.3 278.9 532.6 266.4 533.4C237.4 535.2 209.1 545.1 185.4 562C183.8 563 185.3 565.6 186.9 564.5Z" fill="#E8E8E8"/>
<path d="M452 602.9C490.9 561.8 548.1 545 603.4 544.5C635.5 544.2 667.5 548.8 698.8 555.5C728.6 561.8 757.5 570 788.3 565.9C820.5 561.6 850.6 547.8 879.4 533.3C881.1 532.4 879.6 529.8 877.9 530.7C850.5 544.5 822 557.6 791.5 562.4C775.9 564.8 760.2 564.6 744.6 562.1C728.8 559.6 713.4 555.4 697.7 552.1C640.5 540.1 579.6 535 523.4 554.5C495.7 564.1 470.1 579.4 449.9 600.7C448.6 602.2 450.7 604.3 452 602.9Z" fill="#E8E8E8"/>
<path d="M915.5 632.8C931.8 638.5 948.5 633.2 963.4 626.1C980.1 618.1 995.8 608.2 1012.9 601.1C1030 594 1048.4 589.2 1067 591.5C1084 593.6 1099.7 601.2 1114.6 609.3C1128.7 617 1142.6 625.4 1157.6 631.3C1174.3 637.8 1192.3 640.9 1210.2 640.5C1246.9 639.7 1278.1 621.4 1311.6 609C1342.9 597.4 1384.6 592.2 1409.7 619.4C1411 620.8 1413.1 618.7 1411.8 617.3C1392.1 596 1360.7 593.6 1333.7 599.3C1298.5 606.7 1268.1 628.2 1232.7 635.1C1213.8 638.8 1194 638.3 1175.3 633.8C1157.9 629.6 1142.3 621.4 1126.7 612.7C1112.6 604.8 1098.3 596.6 1082.8 591.9C1066.7 587 1049.9 586.9 1033.6 590.9C1013.7 595.8 995.4 605.5 977.5 615.3C959 625.3 937.6 637.5 916.1 630C914.5 629.3 913.7 632.2 915.5 632.8Z" fill="#E8E8E8"/>
<path d="M1178.8 681C1220.2 683.5 1254.3 655.4 1293.4 646.9C1303.8 644.6 1314.8 643.6 1325.4 645.4C1334.9 647 1343.5 650.9 1351.7 655.9C1365.8 664.5 1379.5 675.6 1396.7 676.8C1417.6 678.2 1436.1 665.2 1451.7 653C1453.2 651.8 1451.1 649.7 1449.6 650.9C1434.4 662.7 1416.2 675.6 1395.8 673.7C1378.1 672.1 1364.1 659.3 1349.2 651C1314.9 631.8 1278.2 646.9 1245.3 661.4C1224.2 670.6 1202.3 679.5 1178.9 678.1C1176.9 677.9 1176.9 680.9 1178.8 681Z" fill="#E8E8E8"/>
<path d="M234.9 872.2C249.4 858.4 270.9 853 290.2 858.3C310.4 863.8 323.4 881.2 339.6 893.2C371.9 917.1 415.9 913.3 451.4 899.2C493.3 882.6 528.2 852.6 570 835.7C590.4 827.4 612.5 822.1 634.7 823.6C656.3 825.1 674.7 834.4 691.8 847C708.8 859.5 724.8 874.3 744.7 882.2C766 890.6 790 888.8 810 877.7C811.7 876.8 810.2 874.2 808.5 875.1C788.1 886.4 763.7 887.4 742.4 878C724.6 870.1 710 856.9 694.5 845.3C678.6 833.4 661.7 824.1 641.7 821.3C621.1 818.5 600.1 822 580.6 828.5C537.9 842.8 502.7 872.3 462.2 891.2C424.8 908.7 376.7 916.9 341.2 890.6C323.5 877.5 309.6 858.8 286.8 854.4C267.5 850.7 247 856.5 232.8 870.1C231.4 871.4 233.5 873.6 234.9 872.2Z" fill="#E8E8E8"/>
<path d="M619.1 928C635.6 917.3 655.2 912.2 674.9 913.8C692.9 915.3 709.9 922 726.4 928.7C742.4 935.2 758.6 942 775.8 944.8C793.8 947.7 812 945.5 829.3 940.2C850 933.8 869.2 923.6 888.1 913.3C889.8 912.4 888.3 909.8 886.6 910.7C852 929.4 814 949.1 773.4 941.3C739.5 934.8 709.7 913.8 674.8 910.8C654.6 909.1 634.4 914.4 617.5 925.4C616 926.5 617.5 929.1 619.1 928Z" fill="#E8E8E8"/>
<path d="M996.6 995.8C1018.4 975.4 1045.2 960.7 1074.1 953.2C1088.8 949.4 1103.9 947.5 1119.1 947.6C1136 947.8 1152.8 950.5 1169.6 952.1C1202.2 955.2 1233.5 949.7 1264 937.8C1293.1 926.5 1320.5 906.9 1351.8 902.1C1388.4 896.5 1416.7 920.8 1440 945.7C1441.3 947.1 1443.4 945 1442.1 943.6C1422.9 923.1 1400.3 901.9 1371.1 898.6C1339.1 895 1310 913.8 1282.2 926.7C1250.2 941.6 1215.7 951.8 1180.2 949.8C1162.5 948.8 1145 945.6 1127.2 944.7C1112.1 943.9 1096.9 945 1082.1 948.1C1049.4 954.8 1018.9 970.6 994.5 993.5C993.1 995 995.2 997.1 996.6 995.8Z" fill="#E8E8E8"/>
<path d="M411.1 363.9C439.1 385.6 475.6 376 506.1 366C543.9 353.5 582.2 345.6 622.2 344.8C624.1 344.8 624.1 341.8 622.2 341.8C585.4 342.5 549.1 348.8 514.1 360.2C482.4 370.5 443 385 413.2 361.8C411.7 360.6 409.6 362.7 411.1 363.9Z" fill="#161616"/>
<path d="M680.7 182.1C714.5 179.6 747.1 170.2 779.8 162.3C813.8 154 847.9 148.5 883 152.3C918.4 156.1 952.7 166.8 987.4 174.4C1020.8 181.8 1054.7 185.2 1088.9 183.5C1127.4 181.6 1165.4 173.5 1201.3 159.7C1203.1 159 1202.3 156.1 1200.5 156.8C1135.2 181.9 1063.9 187.2 995.5 173C961.4 165.9 928 155.5 893.5 150.5C860.2 145.7 827.7 148.4 794.9 155.6C756.9 163.9 719.6 176.1 680.7 179C678.8 179.3 678.8 182.3 680.7 182.1Z" fill="#161616"/>
<path d="M1221.9 432.7C1251.1 421.9 1281.4 437.3 1310.6 440.1C1326.3 441.6 1341.9 440.1 1357.2 436.5C1372.2 432.9 1386.8 427.6 1402.1 425.3C1418.5 422.8 1436 423.8 1450.2 433.1C1451.8 434.2 1453.3 431.6 1451.7 430.5C1426.5 414.1 1395.7 422.9 1369.1 430.3C1352.4 435 1335.7 438.4 1318.3 437.7C1301.7 437.1 1285.8 432.5 1269.6 429.1C1253.5 425.8 1236.9 424 1221.2 429.8C1219.3 430.4 1220.1 433.3 1221.9 432.7Z" fill="#161616"/>
<path d="M202.6 736.1C228 713.5 263.8 733.5 292 737.8C324.6 742.8 357.2 733.8 388.3 725.1C390.2 724.6 389.4 721.7 387.5 722.2C353.1 731.8 317.5 741.3 281.8 732.8C255.7 726.6 223.8 713.4 200.4 734C199 735.2 201.1 737.3 202.6 736.1Z" fill="#161616"/>
<path d="M522.4 1016.9C530.5 1007.3 543 1002.1 555.6 1003.7C562.8 1004.6 569.4 1007.9 576 1010.8C581.5 1013.2 587.1 1015.2 592.8 1016.8C617.3 1023.6 643.6 1022.6 667.5 1014.2C669.3 1013.6 668.5 1010.7 666.7 1011.3C639.9 1020.6 610.3 1020.6 583.6 1010.6C572 1006.3 561.2 999.4 548.3 1000.4C537.4 1001.2 527.3 1006.4 520.2 1014.7C519 1016.3 521.2 1018.4 522.4 1016.9Z" fill="#161616"/>
<path d="M692.6 1008.7C710.8 1003.4 729.5 1000.8 748.5 1000.9C750.4 1000.9 750.4 997.9 748.5 997.9C729.3 997.8 710.3 1000.5 691.8 1005.8C690 1006.4 690.7 1009.3 692.6 1008.7Z" fill="#161616"/>
<path d="M716.4 231.4C734.1 245 751 259.6 767.2 275.1C768.6 276.4 770.7 274.3 769.3 273C753 257.4 735.8 242.7 717.9 228.9C716.4 227.6 714.9 230.2 716.4 231.4Z" fill="#161616"/>
<path d="M543 284.1C544.7 274.7 546.5 265.3 548.2 255.8C548.6 253.9 545.7 253.1 545.3 255C543.6 264.4 541.8 273.8 540.1 283.3C539.8 285.2 542.7 286 543 284.1Z" fill="#161616"/>
<path d="M1119.6 343.7C1122.8 343.7 1125.4 341.103 1125.4 337.9C1125.4 334.697 1122.8 332.1 1119.6 332.1C1116.4 332.1 1113.8 334.697 1113.8 337.9C1113.8 341.103 1116.4 343.7 1119.6 343.7Z" fill="#EF9FBC"/>
<path d="M361.8 822.7C365.611 822.7 368.7 819.611 368.7 815.8C368.7 811.989 365.611 808.9 361.8 808.9C357.989 808.9 354.9 811.989 354.9 815.8C354.9 819.611 357.989 822.7 361.8 822.7Z" fill="#EF9FBC"/>
<path d="M328.4 197.6C337.126 197.6 344.2 190.526 344.2 181.8C344.2 173.074 337.126 166 328.4 166C319.674 166 312.6 173.074 312.6 181.8C312.6 190.526 319.674 197.6 328.4 197.6Z" fill="#EF9FBC"/>
<path d="M360.1 212.9C363.027 212.9 365.4 210.527 365.4 207.6C365.4 204.673 363.027 202.3 360.1 202.3C357.173 202.3 354.8 204.673 354.8 207.6C354.8 210.527 357.173 212.9 360.1 212.9Z" fill="#EF9FBC"/>
<path d="M662.9 1102.4C669.417 1102.4 674.7 1097.12 674.7 1090.6C674.7 1084.08 669.417 1078.8 662.9 1078.8C656.383 1078.8 651.1 1084.08 651.1 1090.6C651.1 1097.12 656.383 1102.4 662.9 1102.4Z" fill="#EF9FBC"/>
<path d="M1211.3 218.2C1217.04 218.2 1221.7 213.544 1221.7 207.8C1221.7 202.056 1217.04 197.4 1211.3 197.4C1205.56 197.4 1200.9 202.056 1200.9 207.8C1200.9 213.544 1205.56 218.2 1211.3 218.2Z" fill="#EF9FBC"/>
<path d="M1224.6 195.3C1228.13 195.3 1231 192.435 1231 188.9C1231 185.365 1228.13 182.5 1224.6 182.5C1221.07 182.5 1218.2 185.365 1218.2 188.9C1218.2 192.435 1221.07 195.3 1224.6 195.3Z" fill="#EF9FBC"/>
<path d="M344.3 181C353.026 181 360.1 173.926 360.1 165.2C360.1 156.474 353.026 149.4 344.3 149.4C335.574 149.4 328.5 156.474 328.5 165.2C328.5 173.926 335.574 181 344.3 181Z" fill="#65C3C8"/>
<path d="M336.4 832C340.763 832 344.3 828.463 344.3 824.1C344.3 819.737 340.763 816.2 336.4 816.2C332.037 816.2 328.5 819.737 328.5 824.1C328.5 828.463 332.037 832 336.4 832Z" fill="#65C3C8"/>
<path d="M614.1 1079.5C617.966 1079.5 621.1 1076.37 621.1 1072.5C621.1 1068.63 617.966 1065.5 614.1 1065.5C610.234 1065.5 607.1 1068.63 607.1 1072.5C607.1 1076.37 610.234 1079.5 614.1 1079.5Z" fill="#65C3C8"/>
<path d="M1172.9 182.5C1182.07 182.5 1189.5 175.068 1189.5 165.9C1189.5 156.732 1182.07 149.3 1172.9 149.3C1163.73 149.3 1156.3 156.732 1156.3 165.9C1156.3 175.068 1163.73 182.5 1172.9 182.5Z" fill="#65C3C8"/>
<path d="M899.6 433.9C901.588 433.9 903.2 432.288 903.2 430.3C903.2 428.312 901.588 426.7 899.6 426.7C897.612 426.7 896 428.312 896 430.3C896 432.288 897.612 433.9 899.6 433.9Z" fill="#65C3C8"/>
<path d="M862.7 219.6C860.6 224.5 858.6 229.5 856.5 234.4C855.8 236.2 858.7 237 859.4 235.2C861.5 230.3 863.5 225.3 865.6 220.4C866.3 218.6 863.4 217.8 862.7 219.6Z" fill="#65C3C8"/>
<path d="M862.2 222C865.9 225.9 868.8 230.3 870.7 235.3C871.4 237.1 874.3 236.3 873.6 234.5C871.4 229 868.3 224.2 864.3 219.9C863 218.5 860.8 220.6 862.2 222Z" fill="#65C3C8"/>
<path d="M857.3 237C860.2 242.4 863.5 247.5 867.2 252.3C868.4 253.8 871 252.3 869.8 250.8C866.1 245.9 862.8 240.8 859.9 235.5C858.9 233.8 856.4 235.3 857.3 237Z" fill="#65C3C8"/>
<path d="M870.9 235.5C869.7 241.1 868.6 246.7 867.4 252.3C867 254.2 869.9 255 870.3 253.1C871.5 247.5 872.6 241.9 873.8 236.3C874.2 234.5 871.3 233.7 870.9 235.5Z" fill="#65C3C8"/>
<path d="M1144.4 647.7C1142 652.1 1140.4 656.8 1139.7 661.8C1139.4 663.7 1142.3 664.5 1142.6 662.6C1143.3 657.9 1144.7 653.5 1147 649.3C1147.9 647.5 1145.3 646 1144.4 647.7Z" fill="#65C3C8"/>
<path d="M1144.2 648.6C1146.2 653.9 1148.5 659 1151.1 663.9C1152 665.6 1154.6 664.1 1153.7 662.4C1151.2 657.7 1149 652.8 1147.1 647.8C1146.4 646 1143.5 646.8 1144.2 648.6Z" fill="#65C3C8"/>
<path d="M1139.1 663.9C1141.7 667.6 1144.2 671.3 1146.8 675C1147.9 676.6 1150.5 675.1 1149.4 673.5C1146.8 669.8 1144.3 666.1 1141.7 662.4C1140.6 660.8 1138 662.3 1139.1 663.9Z" fill="#65C3C8"/>
<path d="M1150 663.4C1147.9 666.3 1146.9 669.6 1146.9 673.1C1146.9 675 1149.9 675 1149.9 673.1C1149.9 670.1 1150.8 667.3 1152.6 664.9C1153.7 663.3 1151.1 661.8 1150 663.4Z" fill="#65C3C8"/>
<path d="M307.9 930.8C305.2 936.7 302.5 942.5 299.8 948.4C299 950.1 301.6 951.7 302.4 949.9C305.1 944 307.8 938.2 310.5 932.3C311.3 930.6 308.8 929.1 307.9 930.8Z" fill="#65C3C8"/>
<path d="M308.4 931.6C311 937.8 313.6 944 316.2 950.2C316.9 952 319.8 951.2 319.1 949.4C316.5 943.2 313.9 937 311.3 930.8C310.6 929 307.7 929.8 308.4 931.6Z" fill="#65C3C8"/>
<path d="M299.1 951.1C301.8 956.4 304.4 961.8 307.1 967.1C307.6 968 308.8 968 309.5 967.4C311.6 965.7 312.6 962.8 313.7 960.5C315.3 957.3 316.9 954.1 318.5 950.9C319.4 949.2 316.8 947.7 315.9 949.4C314.5 952.2 313 955 311.6 957.8C310.4 960.2 309.3 963.5 307.2 965.2C308 965.3 308.8 965.4 309.6 965.5C306.9 960.2 304.3 954.8 301.6 949.5C300.8 947.9 298.2 949.4 299.1 951.1Z" fill="#65C3C8"/>
<path d="M1314.4 466C1311.3 471.9 1309.4 478.1 1308.5 484.7C1308.2 486.6 1311.2 486.6 1311.5 484.7C1312.3 478.6 1314.1 472.9 1316.9 467.5C1317.9 465.8 1315.3 464.3 1314.4 466Z" fill="#65C3C8"/>
<path d="M1314 469.5C1317.1 475.5 1320.1 481.5 1323.2 487.5C1324.1 489.2 1326.7 487.7 1325.8 486C1322.7 480 1319.7 474 1316.6 468C1315.7 466.3 1313.1 467.8 1314 469.5Z" fill="#65C3C8"/>
<path d="M1308.7 485.1C1311.2 491.1 1314.2 496.7 1317.8 502C1318.9 503.6 1321.5 502.1 1320.4 500.5C1316.9 495.4 1313.9 490 1311.6 484.3C1310.9 482.6 1308 483.4 1308.7 485.1Z" fill="#65C3C8"/>
<path d="M1322.3 486.4C1320.5 492 1319 497.7 1318 503.6C1317.7 505.5 1320.6 506.3 1320.9 504.4C1321.9 498.6 1323.3 492.9 1325.2 487.2C1325.8 485.4 1322.9 484.6 1322.3 486.4Z" fill="#65C3C8"/>
<path d="M1302.8 951.5C1301.6 955.5 1300.5 959.4 1299.3 963.4C1298.8 965.3 1301.6 966 1302.2 964.2C1303.4 960.2 1304.5 956.3 1305.7 952.3C1306.3 950.4 1303.4 949.6 1302.8 951.5Z" fill="#65C3C8"/>
<path d="M1302.6 953.7C1304.4 957.7 1306.3 961.7 1308.1 965.6C1308.9 967.4 1311.5 965.8 1310.7 964.1C1308.9 960.1 1307 956.1 1305.2 952.2C1304.4 950.4 1301.8 951.9 1302.6 953.7Z" fill="#65C3C8"/>
<path d="M1300.1 965.3C1301 970 1303.2 974.2 1306.3 977.8C1307.6 979.3 1309.7 977.1 1308.4 975.7C1305.6 972.5 1303.8 968.7 1303 964.6C1302.6 962.6 1299.7 963.4 1300.1 965.3Z" fill="#65C3C8"/>
<path d="M1308 964.9C1306.7 969.1 1306.1 973.4 1306.2 977.7C1306.3 979.6 1309.3 979.6 1309.2 977.7C1309.1 973.6 1309.6 969.6 1310.9 965.7C1311.5 963.9 1308.6 963.1 1308 964.9Z" fill="#65C3C8"/>
<path d="M270.2 423.9C268 428.7 265.9 433.5 263.7 438.3C262.9 440 265.5 441.6 266.3 439.8C268.5 435 270.6 430.2 272.8 425.4C273.6 423.7 271 422.1 270.2 423.9Z" fill="#65C3C8"/>
<path d="M264.1 440.8C266.4 446.7 268.6 452.5 270.9 458.4C271.6 460.2 274.5 459.4 273.8 457.6C271.5 451.7 269.3 445.9 267 440C266.3 438.2 263.4 439 264.1 440.8Z" fill="#65C3C8"/>
<path d="M270.2 424.1C273.3 429.5 276.4 435 279.5 440.4C280.5 442.1 283 440.6 282.1 438.9C279 433.5 275.9 428 272.8 422.6C271.8 420.9 269.2 422.4 270.2 424.1Z" fill="#65C3C8"/>
<path d="M280.2 439.1C277 445.1 274.2 451.3 271.8 457.6C271.1 459.4 274 460.2 274.7 458.4C277 452.3 279.7 446.3 282.8 440.6C283.7 438.9 281.1 437.4 280.2 439.1Z" fill="#65C3C8"/>
<path d="M1024 516.1C1026 512.3 1029.8 509.7 1034.2 509.9C1037.8 510 1040.5 512.5 1043.7 513.7C1049.3 515.7 1051 512.1 1055.2 509.4C1060.9 505.6 1066.4 514.1 1072.5 514C1076 513.9 1078.9 512.2 1079 508.5C1078.2 508.9 1077.5 509.4 1076.7 509.8C1079.8 511.4 1082.9 513 1085.9 514.7C1087.6 515.6 1089.1 513 1087.4 512.1C1084.3 510.5 1081.2 508.9 1078.2 507.2C1077.2 506.7 1076 507.3 1075.9 508.5C1075.6 515.6 1061.8 505.5 1059.2 505.2C1053.3 504.4 1051 511.7 1045.9 510.9C1040.5 510 1037.1 506.1 1031.3 507.1C1026.9 507.9 1023.3 510.6 1021.3 514.6C1020.6 516.3 1023.1 517.8 1024 516.1Z" fill="#65C3C8"/>
<path d="M1062.3 495.8C1066.8 490.8 1073.9 497.1 1079 497.7C1084.9 498.4 1089.5 492.1 1095.2 495.3C1099.9 498 1108.5 504.4 1111.9 496.2C1112.6 494.4 1109.7 493.6 1109 495.4C1106.6 501.2 1098 493.1 1095.1 491.9C1091.2 490.2 1088.6 491.6 1085.1 493.3C1080.9 495.3 1077.9 494.6 1073.9 492.8C1072.1 492 1070.3 491.3 1068.3 491C1065.2 490.6 1062.4 491.2 1060.2 493.6C1058.9 495.1 1061 497.2 1062.3 495.8Z" fill="#65C3C8"/>
<path d="M981.1 259.9C982.5 257.3 984.1 256.6 985.9 257.8C986.7 258.1 987.5 258.5 988.3 259C989.2 259.4 990.1 260 991 260.3C992.6 260.8 994.2 261 995.8 260.6C1000.1 259.4 1002.3 254 1006.9 254.1C1011.2 254.2 1014.3 258.3 1018.8 256.2C1020.7 255.3 1022 253.7 1023.8 252.7C1027.8 250.5 1032.7 251.3 1036.1 254.1C1037.6 255.3 1039.7 253.2 1038.2 252C1033.7 248.3 1027.5 247.2 1022.3 250.1C1020 251.4 1018.1 254.2 1015.1 253.8C1013.4 253.6 1011.9 252.4 1010.3 251.8C1007.9 250.9 1005.7 250.6 1003.3 251.7C1000.3 253.1 998.3 257 995 257.7C990.8 258.6 988 254.3 984.1 254.2C980.4 254.1 976.1 257.7 978.6 261.4C979.6 263 982.2 261.5 981.1 259.9Z" fill="#D1C1D7"/>
<path d="M1014.3 242.2C1015.5 235.7 1026.8 242 1030.8 241.3C1033.4 240.9 1035.3 239.1 1037.7 238.2C1041.5 236.7 1045.2 237.3 1048.7 239.4C1050.4 240.4 1051.9 237.8 1050.2 236.8C1047.2 235 1044 234.1 1040.6 234.4C1039.1 234.5 1037.7 234.9 1036.4 235.4C1032.4 237.1 1030.8 239 1025.8 237.8C1021 236.6 1012.8 234.2 1011.5 241.4C1011 243.3 1013.9 244.1 1014.3 242.2Z" fill="#D1C1D7"/>
<path d="M257.2 603.6C258.5 597.3 267.2 605.9 268.9 607C270.8 608.3 272.9 609.2 275.2 608.7C278.2 608.2 280.5 605.7 283.6 605C288.6 603.9 293.6 605.5 297.2 609.1C298.6 610.5 300.7 608.3 299.3 607C296.2 603.9 292.4 602 288 601.7C285.8 601.5 283.6 601.8 281.5 602.5C278.2 603.6 275.6 606.8 271.6 605.2C267.4 603.5 265.8 599.2 261 598.7C257.9 598.4 255 599.6 254.4 602.8C253.9 604.7 256.8 605.5 257.2 603.6Z" fill="#D1C1D7"/>
<path d="M290.5 596.4C292.7 593.4 302.8 599.4 305.7 600.1C310.4 601.2 315.2 601.2 320 600.6C321.9 600.3 321.1 597.4 319.2 597.7C310.9 598.8 304.5 596.6 297 593.6C293.6 592.3 290.2 591.8 287.9 594.9C286.8 596.4 289.4 597.9 290.5 596.4Z" fill="#D1C1D7"/>
<path d="M534.3 806C535.9 803.5 538.4 801.9 541.5 801.9C544.1 801.9 545.7 803.5 548 804.2C550.3 805 552.2 804.5 554.2 803.2C558.1 800.6 560 797.4 565.3 797.6C570.1 797.7 574.7 800 578.9 802.1C580.6 803 582.1 800.4 580.4 799.5C572.5 795.5 562.9 791.7 555.3 798.2C553.6 799.6 553.4 800 550.8 800.5C547.9 801.1 548.2 800.7 546 799.8C544.1 799 542.3 798.7 540.2 798.9C536.5 799.3 533.6 801.4 531.7 804.4C530.7 806.1 533.3 807.6 534.3 806Z" fill="#D1C1D7"/>
<path d="M567.6 811.8C572.3 807.7 581.2 816.3 587 815.5C590.5 815 592.1 812.4 594.4 810C598.8 805.3 605.4 804.6 610.8 808.1C612.4 809.1 613.9 806.6 612.3 805.5C608.4 803 603.8 802.2 599.3 803.5C597.3 804.1 595.5 805 593.9 806.3C591.5 808.3 590 811.9 586.6 812.5C579.3 813.8 572.4 803.6 565.5 809.7C564.1 811 566.2 813.1 567.6 811.8Z" fill="#D1C1D7"/>
<path d="M431.2 170.4C432 167.1 433.9 164.5 437.1 163.1C439.9 161.9 442.2 162.7 445.1 162.6C448.3 162.4 450.7 160.8 452.6 158.4C455.5 154.8 457.4 151.1 461.5 148.7C466.2 146 471.6 145.5 476.8 147.1C478.7 147.7 479.4 144.8 477.6 144.2C468 141.3 458.5 145 452.7 153.1C450.4 156.3 448.7 159.5 444.3 159.6C441.6 159.7 439.3 159.1 436.7 160C432.3 161.5 429.3 165.2 428.3 169.6C427.8 171.5 430.7 172.3 431.2 170.4Z" fill="#D1C1D7"/>
<path d="M445.3 181.9C441 170.5 461.6 171.1 467.8 168.9C475.5 166.2 482.1 161.4 488.6 156.6C490.1 155.5 488.6 152.9 487.1 154C482.7 157.3 478.2 160.5 473.4 163.1C467.4 166.3 461.7 167.3 455.2 168.3C448.3 169.4 439.3 174.2 442.5 182.6C443.1 184.4 446 183.7 445.3 181.9Z" fill="#D1C1D7"/>
<path d="M844.1 755.2C851.7 735.3 864.6 722.3 877.9 708.8C895.4 691.1 927.9 658.2 961 663.4C989.2 667.8 986.1 694.9 1024.8 714.6C1061.3 733.3 1075.3 714.8 1111.7 734.9C1117.1 737.9 1155.2 759.6 1163.9 800.6C1167.5 817.6 1166.6 840.9 1159.1 843.1C1150.6 845.6 1147.7 796.6 1113.7 777.4C1087.7 762.7 1051.9 769.8 1049 780.3C1045.9 791.4 1081.8 798.7 1102.1 837.3C1111 854.1 1112.9 869.4 1115.6 890.4C1118.1 910.2 1120.9 950.8 1111.7 953.2C1104.1 955.2 1100 928.1 1072.1 905.9C1057.4 894.2 1041.7 889.4 1010.3 879.8C982 871.2 967.7 867 960 874C948.6 884.4 957.4 910.8 959 915.5C970.2 949.1 998.8 963.1 996.7 966.7C993.9 971.2 941.7 958.2 899.1 916.5C862.7 880.8 822 812.9 844.1 755.2Z" fill="#EF9FBC"/>
<path d="M1170.6 871.1C1170.2 873.9 1168.1 889.5 1177.3 899.5C1187.5 910.5 1199.9 902.1 1212.4 913C1223.9 923 1222.4 938 1225.9 937.7C1229.9 937.4 1236 917.1 1227.4 904.8C1224.7 900.9 1218.1 897.4 1205 890.6C1191.6 883.6 1189.8 883.9 1186.3 880.1C1177.6 870.7 1178.9 858.4 1175.8 858.4C1173.4 858.4 1171.3 865.8 1170.6 871.1Z" fill="#EF9FBC"/>
<path d="M1084.6 988.5C1079 996.9 1079.6 1005.9 1080.1 1015.4C1080.7 1025.1 1081.1 1033 1086.8 1040.1C1093.3 1048.2 1104.1 1051.6 1105.5 1049.8C1106.6 1048.4 1101.7 1044.6 1097.3 1036.3C1096.8 1035.3 1090.3 1023 1090.6 1008.6C1090.9 990.6 1101.5 979.9 1098.8 978C1096.8 976.5 1089.1 981.7 1084.6 988.5Z" fill="#EF9FBC"/>
<path d="M1124.7 822.7C1141.5 833.8 1132.3 859.5 1143.3 874.5C1144.4 876 1147 874.5 1145.9 873C1134.5 857.4 1144.2 832 1126.2 820.1C1124.6 819 1123.1 821.6 1124.7 822.7Z" fill="#D1C1D7"/>
<path d="M1118.7 750.3C1136.7 764.1 1149.2 783.8 1154.2 805.9C1154.6 807.8 1157.5 807 1157.1 805.1C1151.9 782.2 1138.9 762 1120.3 747.8C1118.6 746.5 1117.1 749.1 1118.7 750.3Z" fill="#5222D0"/>
<path d="M1060.7 805.7C1075.1 817.5 1086.4 832.6 1093.4 849.9C1094.1 851.7 1097 850.9 1096.3 849.1C1089 831.3 1077.7 815.8 1062.8 803.6C1061.4 802.4 1059.2 804.5 1060.7 805.7Z" fill="#5222D0"/>
<path d="M1100.4 866.4C1103.1 873.6 1104.9 880.9 1105.6 888.5C1105.8 890.4 1108.8 890.4 1108.6 888.5C1107.8 880.6 1106 873 1103.2 865.6C1102.7 863.8 1099.8 864.6 1100.4 866.4Z" fill="#5222D0"/>
<path d="M946.5 883C944 898.1 946.9 913.2 955.1 926.2C956.1 927.8 958.7 926.3 957.7 924.7C950 912.5 947 898.1 949.4 883.8C949.7 881.9 946.8 881.1 946.5 883Z" fill="#5222D0"/>
<path d="M959.1 934.4C962.7 941 967.3 946.9 972.8 952C974.2 953.3 976.3 951.2 974.9 949.9C969.6 944.9 965.2 939.2 961.7 932.9C960.8 931.2 958.2 932.7 959.1 934.4Z" fill="#5222D0"/>
<path d="M844.3 782C843.5 791.5 844.4 800.9 847.1 810.1C847.6 812 850.5 811.2 850 809.3C847.4 800.3 846.5 791.3 847.3 782C847.5 780.1 844.5 780.1 844.3 782Z" fill="#5222D0"/>
<path d="M850.1 820.3C851.7 828.1 854.6 835.3 858.8 842.1C859.8 843.7 862.4 842.2 861.4 840.6C857.4 834 854.6 827.1 853 819.5C852.6 817.7 849.7 818.5 850.1 820.3Z" fill="#5222D0"/>
<path d="M589 195.2C586.2 202.8 582.8 213.2 579.5 225.8C576.1 238.9 568.1 273.4 568.9 318.8C569.7 362.6 578.3 394.8 586.2 423.5C598.5 468.3 613.5 500.5 622.4 519.2C622.4 519.2 650.7 579.1 697.6 643.3C705.9 654.6 716.5 668.9 716.5 668.9C724.2 679.2 730.8 687.8 735.4 694C739.1 698.2 743.8 702.9 749.9 707.4C761.3 715.9 772.6 720.2 780.5 722.4C793.5 711.3 806.5 700.1 819.5 689C825.4 694.6 831.4 700.1 837.3 705.7C845.5 697.3 852.8 690.6 858.5 685.7C883.3 664.2 903.8 653.2 908.6 650.6C912.7 648.4 916.2 646.7 918.6 645.6C914.9 638.2 911.2 630.8 907.5 623.3C913.5 618.1 920.4 612.6 928.1 607.2C938.5 599.9 948.5 594 957.6 589.4C957.5 581 956.4 568.3 950.9 554.3C946.8 543.8 941.9 536.7 939.8 533.7C916.7 500.4 984.8 592.2 895.8 465.2C861.3 416 844.1 391.3 836.2 381.1C811.5 348.8 792.1 326.7 778.3 311C751.9 280.9 740 269.7 730.4 261.5C717.3 250.1 702.8 237.8 680.9 226.4C667.1 219.3 655.7 215.4 639.1 209.7C618.6 202.7 601.3 198.1 589 195.2Z" fill="white"/>
<path d="M585.9 197C564.2 263.9 564.2 336.1 579.8 404.3C583.7 421.4 588.6 438.3 594.4 454.8C597.3 463.2 600.8 471.4 603.9 479.7C605 482.6 605.2 485.5 606.5 488.4C608.4 492.9 610.4 497.4 612.4 501.9C616.1 510.3 620 518.6 624.1 526.9C628.2 535.1 633.2 542.9 636.9 551.2C638.3 554.3 639.5 557.6 641.1 560.6C643.2 564.4 646.3 567.3 648.5 571C653.1 578.7 657.5 586.6 662.3 594.2C684.2 629.5 709.1 662.8 734.6 695.5C735.8 697 737.9 694.9 736.7 693.4C714.2 664.5 692.2 635.2 672.4 604.5C667.5 596.9 662.8 589.3 658.2 581.5C656 577.8 653.8 574 651.7 570.2C649.6 566.5 646.8 563.9 644.6 560.3C642.8 557.3 641.5 554.1 640.2 550.9C638.4 546.6 636 542.7 633.8 538.6C629.6 530.9 625.7 523.1 622 515.2C618.1 506.9 614.4 498.5 610.7 490.1C609.1 486.4 608.5 482.5 607 478.7C605.4 474.6 603.7 470.5 602.1 466.3C596 450.2 590.7 433.8 586.3 417.1C577.5 383.3 572.4 348.6 571.9 313.6C571.4 274.3 576.8 235 589 197.5C589.3 196 586.4 195.2 585.9 197Z" fill="black"/>
<path d="M587.3 197C604 198.3 621 204.1 636.7 209.6C652.2 215.1 667.5 221.1 681.7 229.3C710 245.7 735 267.2 757.8 290.6C781.3 314.7 802.7 341.2 823.4 367.7C844 394.1 863.7 421.4 882.7 449C903.7 479.7 923.9 511 943.7 542.6C944.7 544.2 947.3 542.7 946.3 541.1C910 483.4 872.5 426.4 830.8 372.4C790.5 320.1 747.3 266.7 690.7 231.2C675.3 221.5 658.8 214.5 641.8 208.2C624.6 201.9 605.8 195.4 587.4 193.9C585.4 193.9 585.4 196.9 587.3 197Z" fill="black"/>
<path d="M738.9 694.6C785.5 647.1 837.9 605.4 894.6 570.6C910.6 560.8 926.8 551.6 943.4 543C945.1 542.1 943.6 539.5 941.9 540.4C883 571.2 827.8 609.1 778.1 653.2C763.9 665.8 750.1 678.9 736.8 692.5C735.4 693.9 737.5 696 738.9 694.6Z" fill="black"/>
<path d="M736 696.9C747.9 710.2 763.4 719.6 780.7 723.8C782.6 724.3 783.4 721.4 781.5 720.9C764.6 716.7 749.7 707.7 738.1 694.7C736.8 693.3 734.7 695.5 736 696.9Z" fill="black"/>
<path d="M942.9 543.8C950.7 557.5 955.2 572.6 956.2 588.3C956.3 590.2 959.3 590.2 959.2 588.3C958.2 572 953.5 556.5 945.5 542.3C944.6 540.6 942 542.1 942.9 543.8Z" fill="black"/>
<path d="M782.5 723C836.6 673.6 895.2 629.4 957.7 591.1C959.3 590.1 957.8 587.5 956.2 588.5C893.6 626.9 834.7 671.3 780.4 720.9C779 722.2 781.1 724.3 782.5 723Z" fill="black"/>
<path d="M820.2 690.8C825.7 696.2 831.2 701.6 836.7 707.1C837.3 707.7 838.3 707.7 838.8 707.1C855 689.9 873.2 674.7 893.1 662C897.9 658.9 902.8 656 907.8 653.2C911 651.4 917.1 649.7 919 646.3C921 642.9 918 638.3 916.4 635.4C913.6 630.3 910.3 625.6 906.7 621.2C905.5 619.7 903.4 621.8 904.6 623.3C908.1 627.6 911.2 632.1 913.8 636.9C914.4 637.9 915.7 639.6 915.8 640.8C915.4 642.6 915 644.3 914.6 646.1C914.1 646.4 913.6 646.6 913.1 646.9C911.1 648.4 908.5 649.3 906.3 650.6C897.6 655.5 889.1 660.8 880.9 666.5C864.9 677.8 850.1 690.7 836.7 704.9C837.4 704.9 838.1 704.9 838.8 704.9C833.3 699.5 827.8 694.1 822.3 688.6C820.9 687.3 818.8 689.4 820.2 690.8Z" fill="black"/>
<path d="M593 444.3C617.6 415.3 646.4 390.2 675.9 366.3C705.5 342.4 736.5 320 771.2 304.1C773 303.3 771.4 300.7 769.7 301.5C735.3 317.2 704.6 339.4 675.2 363C645.2 387.2 615.9 412.7 590.9 442.1C589.6 443.7 591.7 445.8 593 444.3Z" fill="black"/>
<path d="M771.8 318.1C768.5 318.3 767.1 312.8 770.8 312.5C772.1 312.4 773.6 313 774.1 314.3C774.8 316.2 773 318.2 771.1 318.2C769.7 318.2 769.6 320.5 771.1 320.5C774.2 320.5 776.9 317.6 776.4 314.5C776 311.9 773.3 310.3 770.8 310.4C768.1 310.6 766 312.8 766.3 315.5C766.6 318.2 769 320.7 771.8 320.5C773.3 320.3 773.3 318 771.8 318.1Z" fill="black"/>
<path d="M924.5 539.3C924.6 539.3 924.6 539.3 924.7 539.2C924.4 539.2 924.1 539.1 923.8 539.1C924.9 539.6 924.3 537.5 924.2 537.2C924.2 536.9 924.3 536.5 924.4 536.2C924.7 535.6 925.2 535 925.8 534.7C927.1 534.1 928.5 535.1 928.9 536.4C929.7 539 925.9 540.3 924.9 538C924.3 536.7 922.4 537.8 923 539.1C924.2 541.9 928.3 542.1 930.3 540C932.6 537.5 930.9 533.3 927.8 532.4C924.5 531.5 921.3 535 922.1 538.2C922.4 539.5 924.1 541.1 925.4 539.8C926.4 538.8 925.4 536.6 923.9 537.2C922.6 537.7 923.2 539.8 924.5 539.3Z" fill="black"/>
<path opacity="0.15" d="M589 195.8C604.8 206 626.2 221 649.6 241.1C664.1 253.6 701.7 287.1 748.7 352.1C799.7 422.6 825.2 457.8 830.3 497.1C832.9 517.6 836.5 576 785 647.8C806.3 631.6 827.7 615.3 849 599.1C858.3 614.4 867.5 629.7 876.8 645C866.8 652.4 856.8 659.7 846.8 667.1C851.7 673 856.6 678.8 861.5 684.7C867.5 678.9 874.7 672.7 883 666.6C895.8 657.2 908.1 650.5 918.7 645.6C914.7 637.9 910.8 630.1 906.8 622.4C924 611.1 941.2 599.7 958.4 588.4C957.5 579.9 955.4 567.6 949.9 553.8C943.5 537.6 935.4 526.8 932.3 522.6C909.9 492.3 920.8 499.6 873.9 433.7C840.2 386.3 821.6 359.8 791.8 325.5C772.7 303.5 760 289 739.7 271.1C718.1 252 691.9 229.3 651.9 212.7C626.4 202.3 604 197.9 589 195.8Z" fill="#494949"/>
<path opacity="0.11" d="M910.1 486.3C909.2 492.7 907.4 502.5 902.9 513.6C892.5 539.3 876.5 550.5 843.1 584.3C827.3 600.3 803.8 624 806 626.6C808.1 629.1 833.8 609.3 878.7 579.7C905 562.3 927.1 548.8 941.6 540C931.1 522.1 920.6 504.2 910.1 486.3Z" fill="#494949"/>
<path opacity="0.08" d="M943.7 543C942.3 543.3 945.7 554.2 941.6 567.8C938.6 577.8 933.5 582.6 921 597.7C915.6 604.2 907.7 614 898.3 626.6C917.9 613.2 937.5 599.8 957.1 586.4C948.2 551 944.9 542.8 943.7 543Z" fill="#494949"/>
<path d="M774.8 870.3C775.1 873.2 776.2 875.5 777.9 878.3C785.1 889.9 797 897 805.6 901.1C802.2 911.8 798.1 927.2 795.1 946C792.3 964.1 789 985.2 793.3 986.6C794.8 987.1 799.2 985.7 840.1 904.7C845.8 893.4 850.5 884 853.6 877.6C831.8 867.8 810.1 857.9 788.3 848.1C786.2 849.7 773.7 858.8 774.8 870.3Z" fill="#161616" stroke="#161616" stroke-width="2" stroke-miterlimit="10"/>
<path d="M729.2 649.1C710.8 661.9 698.9 674.3 688.3 685.5C684 690 663.4 711.9 641.7 746.3C632.1 761.5 625 774.9 620.1 785C620.7 789.1 622.1 795 625.8 800.9C629.9 807.5 634.5 810.4 641.7 816.8C650.5 824.6 653.7 829.2 658.8 834.4C668.7 844.6 682.6 852.3 710 867.4C744.4 886.3 762.9 893.2 768.6 895.3C775.6 897.8 781.5 899.7 785.7 901C787.7 891.7 790.1 881.8 793.1 871.4C795.8 862.1 798.7 853.4 801.6 845.3C780.3 829.7 758.4 812.2 736.2 792.4C728.5 785.6 721.1 778.7 714 771.9C721.2 763.2 731.3 751.8 744.1 739.5C747.8 735.9 755.6 728.5 765.1 720.7C777.1 711 795.2 698 820.2 686C824.5 657.3 819.4 630.5 803.7 621.8C784.1 611 754.3 631.7 729.2 649.1Z" fill="white"/>
<path d="M709 664C673.6 694 644.3 731.1 623.5 772.6C621.4 776.9 618.4 781.7 618 786.5C617.6 791.6 620.7 795.5 623.5 799.4C630.2 808.5 637.8 817 645.9 824.9C663.1 841.4 682.9 855 703.7 866.5C729.3 880.7 756.4 892 783.4 903.2C785.2 903.9 786 901 784.2 900.3C740 881.9 694.9 863.1 658 831.8C649.7 824.7 641.8 817.1 634.7 808.8C631 804.4 627.3 799.9 624.1 795.2C622.1 792.3 620.6 789.6 621.1 785.9C621.6 782.3 623.7 778.9 625.3 775.6C634.9 756.1 646.4 737.6 659.6 720.3C674.7 700.4 692 682.3 711.1 666.2C712.6 664.9 710.5 662.8 709 664Z" fill="black"/>
<path d="M793.8 698.5C759.5 720.7 729.5 748.8 705.2 781.6C704.1 783.2 706.7 784.7 707.8 783.1C731.8 750.7 761.5 722.9 795.3 701C796.9 700.1 795.4 697.5 793.8 698.5Z" fill="black"/>
<path d="M712.3 773.4C740.4 798.8 769.3 823.2 799.1 846.5C800.6 847.7 802.7 845.6 801.2 844.4C771.4 821.1 742.4 796.7 714.4 771.3C713 770 710.9 772.1 712.3 773.4Z" fill="black"/>
<path d="M799.2 846.1C792.9 863.9 788 882.1 784.4 900.6C784 902.5 786.9 903.3 787.3 901.4C790.9 882.9 795.9 864.7 802.1 846.9C802.7 845.1 799.8 844.3 799.2 846.1Z" fill="black"/>
<path opacity="0.11" d="M767.9 687.3C754.1 688.5 743.7 698.6 711.6 743.2C699.3 760.3 689 775.2 681.1 787C692.5 795 701.5 801.6 707.2 805.9C739.1 829.8 752.5 843.2 779.6 857.8C785.5 861 790.4 863.3 793.3 864.6C795.6 858.3 797.9 852 800.1 845.7C792.5 839.1 784.9 832.6 777.2 826C756 808 735 790.6 714.1 773.7C722.8 761.5 731 752.3 737 746C754.7 727.5 772.3 715 786 705.4C790.7 702.1 794.7 699.5 797.3 697.8C784.4 687.9 774.3 686.7 767.9 687.3Z" fill="#494949"/>
<path opacity="0.08" d="M771.9 713.4C763.3 715.4 751.8 719.3 740.1 727.1C711.5 746.2 701.9 775.4 699.1 785.4C714.5 797.4 730.4 809.5 746.9 821.6C762.9 833.4 778.8 844.6 794.3 855.4C796.6 852.1 798.9 848.7 801.1 845.4C779.8 829.9 757.7 812 735.6 791.5C728.6 785.1 721.9 778.6 715.5 772.2C719 767.6 722.8 762.9 726.8 758.1C741.8 740.3 757.2 725.6 771.9 713.4Z" fill="#494949"/>
<path d="M961.2 837.6C971.8 847.6 982.5 857.7 993.1 867.7C990.3 931.5 995.6 946.5 1001.2 947.6C1009.9 949.3 1024.8 919.2 1031.3 895.5C1036.2 877.5 1036.7 861.7 1036.2 851C1019.6 836.2 1003 821.4 986.4 806.5C978 816.9 969.6 827.3 961.2 837.6Z" fill="#161616" stroke="#161616" stroke-width="2" stroke-miterlimit="10"/>
<path d="M753.1 657.7C754 674.3 765.6 684.4 765.6 684.4C772.8 690.7 780.9 692.4 784.9 692.9C788.1 694.2 791.3 695.6 794.6 696.9C799.6 704.1 807 714.3 816.8 725.9C829.8 741.5 847.3 760.1 890.1 795.3C911.2 812.6 938.4 833.9 971.3 857.3C976 855 981.6 851.6 987.2 846.6C999.5 835.7 1005.2 823 1007.8 815.8C1002 810.2 993.4 801.8 983.4 791.4C939 745.5 909.4 706.2 886.8 676C871.9 656.1 852.8 629.6 831.7 597.6C783.4 610.8 751.9 636.4 753.1 657.7Z" fill="white"/>
<path d="M768.6 688.2C776.6 691 784.5 693.7 792.5 696.5C794.3 697.1 795.1 694.2 793.3 693.6C785.3 690.8 777.4 688.1 769.4 685.3C767.6 684.7 766.8 687.6 768.6 688.2Z" fill="black"/>
<path d="M789.2 693.5C826.8 745.2 875.5 787 926 825.7C940.5 836.8 955.2 847.8 969.9 858.7C971.5 859.9 972.9 857.2 971.4 856.1C920.8 818.6 869.9 780.6 826.9 734.4C814.4 721 802.7 706.8 791.9 692C790.7 690.5 788.1 692 789.2 693.5Z" fill="black"/>
<path d="M848.2 623.8C883.6 678.1 923.5 729.3 967.5 776.9C980.2 790.7 993.3 804.1 1006.6 817.2C1008 818.6 1010.1 816.4 1008.7 815.1C962.4 769.7 920 720.4 882 667.9C871.2 653 860.8 637.8 850.7 622.3C849.7 620.7 847.1 622.2 848.2 623.8Z" fill="black"/>
<path d="M1004.9 815.3C999.1 832.5 987.9 848.5 971 856.1C969.2 856.9 970.8 859.5 972.5 858.7C990.1 850.8 1001.7 834 1007.7 816.1C1008.4 814.3 1005.5 813.5 1004.9 815.3Z" fill="black"/>
<path opacity="0.09" d="M848.3 622.2C842.6 614.5 837.8 608.2 834.6 604.1C831.4 610 827 619.9 826.6 632.2C825.7 660 846.1 671.9 904.6 736.7C930.1 764.9 943.6 781.9 976.5 815.5C984.2 823.3 990.7 829.8 995.4 834.4C999 828.1 1002.6 821.8 1006.3 815.5C974.6 783.7 949.5 755 930.7 732.3C912.6 710.4 896.4 690.8 879.7 666.4C875.4 660.3 864.5 644 848.3 622.2Z" fill="#494949"/>
<path opacity="0.09" d="M866 650.3C867.4 657.2 870.3 668.9 876 682.5C892.5 721.3 916.9 737.7 960.8 786.2C969.2 795.5 982.2 810.2 997.4 829.2C1000.9 824.2 1004.4 819.3 1007.9 814.3C1004.7 811.3 999.6 806.6 993.4 800.6C982 789.6 951.1 758.9 892.1 684C885.7 676 876.7 664.4 866 650.3Z" fill="#494949"/>
<path d="M541.4 561.9C539.4 562.7 536.4 564.4 527.5 578.7C517.9 594.1 511.4 604.6 506.6 621.2C502.4 636 501.4 649.5 501.7 660.5C502.4 663.7 502.9 668.4 501.3 673.6C499.2 680.2 495.4 681.8 488.2 690.8C485.3 694.4 480.5 700.5 476.7 708.8C472.5 718.1 474.6 719.3 470.6 728.4C465.8 739.3 458.7 746.8 457.5 748C450.9 754.9 447.7 755.1 444.8 761.1C441.5 767.9 442.5 774.3 442.8 776.2C443 777.6 445.1 789.8 452.2 791.3C454.1 791.7 457.1 791.5 458.3 789.7C460.2 786.9 455.8 783 455 776.2C454.3 770 457 765 458.7 761.9C463.8 752.4 469.7 753.8 475.1 745.9C480.3 738.1 475.4 735.7 480.4 721C483.2 712.8 486 704.6 493.5 698.5C496.9 695.7 500.2 694.2 503.3 689.5C506 685.4 507 681.3 507.4 678.5C512.9 687.3 518.7 693 522.9 696.5C528.5 701.1 534.9 706.5 540.3 704.5C543.2 703.4 545.8 700.1 545.3 697.8C545 696.5 543.8 696.1 540.7 693.3C540.7 693.3 539.5 692.2 536.8 689.3C535 687.4 532.4 683.9 530.1 677.3C531 676.3 533.3 674.1 536.4 673.9C539.8 673.8 542.4 676.2 545 678.8C549.9 683.6 549.7 686.5 552.8 689.4C555.2 691.7 559.6 694.1 568.3 693.5C567.9 692.4 567.2 690.6 566.3 688.6C563.2 681.9 561.6 681.2 561.4 678.4C561.3 676.2 562.2 675.6 566.3 668.6C569.8 662.6 571.5 659.6 571.6 658C572.1 652.1 567 650.1 565.9 643.3C564.9 637.6 567.4 633 569.2 629.4C579.6 608.3 586.2 594.9 584.3 584.8C581.4 569 556.2 555.7 541.4 561.9Z" fill="#161616"/>
<path d="M536.8 565.5C522.3 580.3 513 599.1 506.8 618.7C500.8 637.8 496.3 659.6 505.8 678.3C506.7 680 509.3 678.5 508.4 676.8C499 658.4 504.1 636.6 510.2 617.9C516.2 599.3 525.1 581.7 538.9 567.6C540.2 566.2 538.1 564.1 536.8 565.5Z" fill="#161616"/>
<path d="M521.8 651.9C523 651.3 524.2 650.8 525.4 650.2C526.3 650.7 527.2 651.3 528.1 651.8C529.2 652.8 530.2 654.1 530.9 655.4C532.3 657.8 533 660.7 532.8 663.5C532.4 668.9 528.5 673.1 527.5 678.3C526.9 681.5 529 683.8 530.8 686.2C533.9 690.3 537.5 694.1 541.4 697.5C542.8 698.8 545 696.7 543.5 695.4C541 693.1 538.5 690.8 536.3 688.2C532.7 684.1 529.5 680.6 532 674.9C534.2 669.9 536.5 665.2 535.5 659.5C534.7 655.1 532.2 650.6 528.3 648.2C525 646.2 521 646.6 519.2 650.3C518.3 652.1 520.9 653.6 521.8 651.9Z" fill="#161616"/>
<path d="M506 678.7C511.8 688 519.8 695.7 529.5 700.8C532.4 702.3 537.9 705.8 541.4 704.3C544.7 702.9 544.1 698.9 543.2 696.2C542.6 694.4 539.7 695.2 540.3 697C542.6 704.3 532.9 699.2 531 698.2C527.9 696.6 525 694.7 522.2 692.5C516.7 688.2 512.2 683 508.5 677.1C507.6 675.6 505 677.1 506 678.7Z" fill="#161616"/>
<path d="M574.9 586.9C569 606.7 565.3 627.1 563.6 647.7C563.5 648.3 564.1 649 564.7 649.1C571 650.8 570.1 658.6 567.8 663C565.5 667.2 561.9 670.7 560.1 675.2C556.9 683.3 566.4 685.9 566.2 693C566.7 692.5 567.2 692 567.7 691.5C558.7 691 551.1 686.2 546.6 678.4C543.4 672.8 539.7 671.6 533.3 672C531.4 672.1 531.4 675.1 533.3 675C535.7 674.9 538.6 674.6 540.8 675.8C542.7 676.9 543.3 678.8 544.3 680.5C546 683.4 548.2 686 550.8 688.1C555.7 692.1 561.4 694.1 567.6 694.5C568.4 694.5 569.1 693.8 569.1 693C569.2 688.8 566.4 686.3 564.1 683.1C559.3 676.4 567.2 670.2 570.3 664.5C573.7 658.3 573.6 648.3 565.4 646.2C565.8 646.7 566.1 647.2 566.5 647.6C568.1 627.2 571.9 607.2 577.7 587.6C578.3 585.9 575.4 585.1 574.9 586.9Z" fill="#161616"/>
<path d="M500.7 661.4C501.4 667.4 500.6 673.3 497.7 678.7C495 683.8 490.6 687.5 486.3 691.4C478.7 698.5 475.2 706.3 472.8 716.3C470.2 726.9 467.1 735.4 459.4 743.4C453.6 749.3 446.8 754.8 443.2 762.5C439.7 770 440.2 778.7 444.7 785.7C447.3 789.8 456.2 798 459.6 790.2C461 787 459.4 783 458.3 779.9C457.3 777.2 456 774.5 456 771.5C456 767.3 458.4 763.7 461.2 760.8C468 753.7 476.7 749.7 479.7 739.6C481.4 733.9 480.2 728.2 480.6 722.4C481.1 715.2 484.5 709.1 489.7 704.2C497.6 696.7 508.1 690.5 508.1 678.3C508.1 676.4 505.1 676.4 505.1 678.3C505 690 493.6 695.8 486.4 703.2C480.8 708.9 477.6 716.1 477.5 724.1C477.4 729.4 478.3 734.4 476.5 739.5C474.5 745.3 470.3 749.2 465.7 753C459.8 757.7 453 763.2 453 771.5C453 775.5 455 779.1 456.2 782.9C456.5 783.9 457.6 786.6 457.1 787.4C456.1 787.5 455 787.7 454 787.8C452.2 788.9 450.8 788.7 449.8 787.2C447.6 785.8 445.7 781.6 444.9 779.2C441.7 769.8 446.1 761.4 452.4 754.6C457.7 748.8 463.9 743.9 468.3 737.3C473 730.3 474.4 722 476.4 714C477.9 708.2 479.9 702.6 483.9 698C487.4 693.9 491.8 690.8 495.4 686.8C501.8 679.8 504.7 670.7 503.6 661.4C503.5 659.5 500.5 659.5 500.7 661.4Z" fill="#161616"/>
<path d="M435.8 539.6C433.7 540.8 429.8 542.9 429 547.3C428 552.2 431.5 556.2 432 556.7C431.4 557.4 429.6 559.5 429.4 562.7C429.2 568 433.9 571.1 434.1 571.3C433.9 571.5 431 574.5 432 578.6C432.8 582.1 435.9 583.6 436.3 583.7C436.1 584.3 435.4 586.9 436.7 589.3C438.7 592.9 443.5 592.7 444 592.7C447.4 592.5 450.6 590.2 452.1 586.7C454 587.8 459 590.4 465.8 589.7C470.4 589.2 473.8 587.4 475.6 586.3C479.2 592.6 484.8 601.1 493.1 609.8C500.4 617.4 514 631.7 534.2 637.6C559.4 645 581.7 635.4 594.5 629.9C628.9 615.1 646 587.9 652.3 577.7C662.9 560.3 666.6 545.4 669.8 531.9C675 510.5 673.2 502.1 671.5 497.2C670.5 494.2 664.6 477 651 475C639.9 473.3 630.7 482.8 629.6 484C625.8 488 623.8 493.3 619.8 503.7C617.8 509 616.5 513 615.9 514.8C609.4 535.9 606.1 546.4 605.2 548.6C602.8 554.6 597.1 568.3 583.4 579C570.3 589.2 556.6 591.4 550.5 592.3C541.3 593.6 530 595.2 518 589.3C504.6 582.7 498.6 570.7 497 567.5C492.2 557.6 491.3 546.6 490.6 538.8C489.7 528.8 490.4 521 484.6 514.8C483.5 513.7 480.9 510.9 478.2 511.4C474.3 512.2 472.1 519.7 470.1 526.8C468.4 532.8 468.9 533.5 467.5 534.9C464.6 537.8 460.9 536.3 448.2 537C440.8 537.5 438.2 538.3 435.8 539.6Z" fill="white"/>
<path d="M456.5 535.3C445.7 533.3 426.7 536.1 428.2 550.9C429.5 564.2 445.3 566.5 454.8 560.7C456.4 559.7 454.9 557.1 453.3 558.1C445.4 562.9 431.1 561.6 431.1 549.6C431.1 538 447.4 536.7 455.7 538.2C457.6 538.6 458.4 535.7 456.5 535.3Z" fill="black"/>
<path d="M430.8 555.8C420 569 446 585.6 453.7 569C454.5 567.3 451.9 565.7 451.1 567.5C445.1 580.3 425.1 567.5 433 557.9C434.2 556.5 432.1 554.3 430.8 555.8Z" fill="black"/>
<path d="M431.4 569.2C429.1 574.4 430.7 581 436 583.7C441.2 586.4 447.7 583.9 450.4 578.9C451.3 577.2 448.7 575.7 447.8 577.4C445.8 580.9 441.3 582.9 437.5 581.1C433.7 579.3 432.3 574.4 434 570.7C434.8 569 432.2 567.5 431.4 569.2Z" fill="black"/>
<path d="M433.8 582.6C433.4 587.9 436.5 592.7 441.9 593.8C446.9 594.8 451.5 591.5 453.2 587C453.9 585.2 451 584.4 450.3 586.2C449 589.6 445.4 591.8 441.8 590.7C438.1 589.6 436.6 586.2 436.8 582.6C436.9 580.7 433.9 580.7 433.8 582.6Z" fill="black"/>
<path d="M443.3 549.9C445.9 549.6 448.6 549.7 450.8 551.2C452.9 552.6 454.1 555.4 452.9 557.7C452 559.4 454.6 560.9 455.5 559.2C457.1 556.1 456.4 552.5 454 550C451.3 547.1 447 546.5 443.2 546.9C441.4 547.2 441.4 550.2 443.3 549.9Z" fill="black"/>
<path d="M452.6 589C457.8 587.1 462.8 591.4 468.2 590.8C472.3 590.3 475.9 588.1 479.3 586.1C480.9 585.1 479.4 582.5 477.8 583.5C472.7 586.6 468.3 588.8 462.2 587C458.5 585.9 455.6 584.7 451.8 586.1C450 586.8 450.7 589.7 452.6 589Z" fill="black"/>
<path d="M455.7 537.9C460.9 539.7 467.9 540 470.8 534.3C472.4 531.1 471.4 527.2 472.1 523.8C472.9 519.2 475.5 515.4 479.1 512.5C480.6 511.3 478.5 509.2 477 510.4C473.1 513.6 470.3 518 469.3 523C468.8 525.8 469.5 529.1 468.7 531.8C466.9 537.2 460.9 536.5 456.7 535C454.7 534.4 453.9 537.3 455.7 537.9Z" fill="black"/>
<path d="M476.9 512.7C485.4 513.8 486.5 528.1 487.9 534.6C489.6 543.1 490.5 551.7 492.1 560.2C494.7 573.8 502.6 584.6 515.2 590.7C528.4 597 543.4 596.7 557.2 592.9C571.4 588.9 586.1 581.7 595.3 569.8C596.5 568.3 594.4 566.2 593.2 567.7C583.6 580.1 568 587.4 553 590.9C537.9 594.4 521.4 593.1 508.8 583.3C495.2 572.8 494.9 557 492.2 541.3C490.9 533.9 489.8 525.9 487.1 518.9C485.4 514.5 482.7 510.5 477.8 509.8C475.8 509.5 475 512.4 476.9 512.7Z" fill="black"/>
<path d="M474.7 588.1C486.8 602.9 498.5 619.8 514.5 630.7C530.2 641.3 549.6 642.4 567.8 639.4C604.8 633.2 636.2 608.1 654.2 575.7C664.5 557.3 670.6 536.9 673.3 516C673.5 514.1 670.5 514.1 670.3 516C665.7 551.7 650.1 586.7 622.3 610.3C608.6 621.9 592.3 630.6 574.8 634.8C556.7 639.2 535.8 639.8 519.3 630.1C501.7 619.8 489.4 601.4 476.8 585.9C475.6 584.5 473.5 586.6 474.7 588.1Z" fill="black"/>
<path d="M652.4 474.6C644.1 471.3 635.3 475.6 629.5 481.7C622.7 488.7 619.3 498 616.8 507.2C613.9 517.9 611.3 528.5 607.2 538.8C602.8 549.9 597.2 560.4 590.8 570.4C589.7 572 592.3 573.5 593.4 571.9C603.7 556 611.6 538.7 616.5 520.4C619.1 510.8 620.8 500.8 625.6 492.1C630.4 483.3 640.6 473.1 651.6 477.5C653.4 478.2 654.2 475.3 652.4 474.6Z" fill="black"/>
<path d="M447.8 581C450.6 581.2 450 585.9 449.5 587.6C448.9 589.4 451.8 590.2 452.4 588.4C453.7 584.6 452.8 578.4 447.8 578C445.9 577.9 445.9 580.9 447.8 581Z" fill="black"/>
<path d="M449.5 571.8C450.1 574.2 449.2 576.7 447.3 578.1C445.7 579.2 447.2 581.8 448.8 580.7C451.9 578.5 453.4 574.7 452.4 571C452 569.1 449.1 569.9 449.5 571.8Z" fill="black"/>
<path d="M451.2 561.4C453.9 562.7 452.1 567 450.8 568.7C449.6 570.2 452.2 571.7 453.4 570.2C455.7 567.2 456.9 560.8 452.7 558.8C451 558 449.5 560.6 451.2 561.4Z" fill="black"/>
<path opacity="0.11" d="M430.6 561.8C432.2 560.9 434.8 566.5 441.5 569.3C444 570.3 447.1 571 461.3 569.3C465.9 568.7 471.9 567.9 479.1 566.6C480.5 572.3 483.4 580.9 489.3 589.8C491.8 593.5 501.9 607.9 521.4 616.4C542.3 625.6 561.2 622.5 568.5 621.2C574.7 620.1 592 616.8 607.4 603.4C617.7 594.5 624.3 583.7 634 555.6C640.6 536.5 648.6 510 654.5 477.1C658.5 481.2 664.7 488.6 668.2 499.6C669.9 504.9 671.5 512.7 670.2 524.9C667.5 551.2 654.3 573.1 646.3 584.3C638 596 623.2 616.2 595.8 628.7C592.1 630.4 571.2 639.5 544.6 638.3C538.5 638 532.9 637.7 526 635.2C518.5 632.5 511 625.5 496.1 611.7C489.9 606 483.8 600 477.6 591.3C476.4 589.6 475.4 588.1 474.7 587.1C472.6 588.5 469.5 590.1 466 589.7C461.3 589.3 459.7 585.9 455.8 586.5C452.4 587 452.4 589.8 448.3 591.3C445.1 592.4 440.6 592.3 437.6 590C435.4 588.3 435.1 586.4 432.6 575.6C430.2 565 429.5 562.4 430.6 561.8Z" fill="#494949"/>
<path d="M544.9 535.8C543 536.2 542.3 540 541.1 545.9C540.4 549.5 540.1 552.6 540 554.8C536 559.5 535.6 563.8 535.5 565.5C535.4 569 536.6 571.7 538.9 576.7C540.5 580.3 542.2 583.1 543.4 585C539.1 586 536.1 588.8 535.9 591.8C535.7 594.7 538.3 597 539.3 597.8C543.8 601.7 547.1 598.8 552.8 601.9C557.4 604.4 557 607.2 563.7 610.9C567.9 613.2 569.2 612.7 569.7 612.4C571.4 611.3 570.8 607.7 570.5 605.3C570.1 602.4 568.9 598 565.6 592.9C569.5 591.5 573.4 590.1 577.2 588.8C574.4 589.1 573.8 589.2 573.8 589.2C573.8 589.1 580.7 586.3 586.6 588.8C591.5 590.9 591.9 595.3 596 595.6C598.3 595.8 600.9 594.5 602 592.6C604.3 588.7 600 583 599 581.7C594.9 576.3 588.9 574.7 586.2 574.2C587.1 572.2 588.1 569 588.3 565C588.5 558.2 585.7 553.2 584.4 551.1C582.6 545.2 580.9 539.3 579.1 533.3C576.3 539.8 573.2 541.8 570.8 542.3C568.1 542.9 566.6 541.6 562.2 542.3C558 543 557.8 544.3 555.4 544.2C549.8 543.6 547.9 535.2 544.9 535.8Z" fill="#161616"/>
<path d="M547.4 567.4C549.1 569.4 551.8 570.7 554.5 570C556.9 569.4 558.5 567.4 558.8 565C558.9 564 557.4 564 557.3 565C557.1 567.1 555.3 568.6 553.2 568.7C551.3 568.8 549.7 567.7 548.5 566.3C547.8 565.6 546.8 566.7 547.4 567.4Z" fill="white"/>
<path d="M568.8 564.1C571.3 567.7 579.4 568 579.1 562.3C579 561.3 577.5 561.3 577.6 562.3C577.9 566.4 571.8 565.8 570.1 563.3C569.5 562.5 568.2 563.3 568.8 564.1Z" fill="white"/>
<path d="M564.9 575.2C564.9 575.3 565 575.4 565 575.5C565.3 575.6 565.7 575.7 566 575.8C565.8 575.4 565.5 575.2 565 575.2C565.4 575.1 565.7 574.9 566.1 574.8C566 574.7 565.9 574.5 565.8 574.4C565.3 574.6 564.9 574.8 564.4 575C565.1 576.1 564.8 578.1 564.4 579.2C563.9 580.7 561.8 582.7 560.5 580.7C560 579.9 558.7 580.6 559.2 581.5C560.5 583.5 563.2 583.4 564.7 581.7C566.2 580 567 576.3 565.7 574.3C565.3 573.6 564.1 574 564.3 574.9C564.5 575.5 564.8 575.9 565.3 576.2C565.7 576.5 566.3 576.2 566.4 575.8C566.6 574.9 566.3 572.8 564.9 573.4C563.6 573.9 564.1 575.9 564.7 576.7C564.9 577 565.4 577.2 565.7 577C566.8 576.2 566.8 574.7 565.6 574.1C564.8 573.5 564.1 574.8 564.9 575.2Z" fill="white"/>
<path d="M565 575.5C565.4 577.8 566.2 580.6 568.9 581C571.6 581.4 572.4 578.8 572.4 576.7C572.4 575.7 570.9 575.7 570.9 576.7C570.9 578.2 570.4 580.3 568.4 579.3C566.9 578.6 566.7 576.6 566.5 575.1C566.3 574.2 564.8 574.6 565 575.5Z" fill="white"/>
<path d="M537.4 567.9C539.3 557.5 546.8 548.6 557 545.6C567.2 542.6 579 546.7 583.7 556.5C584.5 558.2 587.1 556.7 586.3 555C581.2 544.5 568.7 539.8 557.6 542.4C545.8 545.2 536.7 555.3 534.5 567.1C534.2 569 537.1 569.8 537.4 567.9Z" fill="#161616"/>
<path d="M542.7 552.8C542.6 547.8 543.5 542.8 545.6 538.3C545.8 537.9 546 537.6 546.1 537.2C546.8 536 546.9 535.8 546.3 536.6C545.7 537.1 545.8 537.5 546.7 538.1C546.9 538.4 547.2 538.8 547.4 539.1C548.9 541.5 550.2 544 551.3 546.6C552 548.4 554.9 547.6 554.2 545.8C553.2 543.4 548.6 531.2 544.7 533.9C542.8 535.2 541.6 539.6 541 541.7C539.9 545.3 539.5 549.1 539.6 552.9C539.8 554.7 542.8 554.7 542.7 552.8Z" fill="#161616"/>
<path d="M573.2 544.7C574.2 543 575.2 541.3 576.3 539.6C576.8 538.9 577.5 538.2 577.8 537.4C578.5 537 578.6 536.6 578.2 536.1C577.8 535.4 577.9 535.6 578.4 536.7C580.1 541 581.3 545.2 581.8 549.9C582 551.8 585 551.8 584.8 549.9C584.5 546.6 583.9 543.4 583 540.2C582.4 538.4 581.5 534.3 579.8 533.2C578.5 532.4 577.4 533 576.5 534.1C574.2 536.8 572.4 540.1 570.6 543.2C569.6 544.8 572.2 546.3 573.2 544.7Z" fill="#161616"/>
<path d="M534.7 566.3C534 583.1 549.2 597.5 566.1 594C573.9 592.4 581.1 587.3 584.8 580.2C588.7 572.7 590.9 560.8 585.8 553.4C584.7 551.8 582.1 553.3 583.2 554.9C587.7 561.6 585.5 572.6 581.9 579.3C578.6 585.4 572.1 589.7 565.3 591.1C550.2 594.1 537.1 581.1 537.7 566.3C537.7 564.3 534.7 564.3 534.7 566.3Z" fill="#161616"/>
<path d="M536.8 592.7C539.2 583.8 551.2 584.3 557.5 588.2C564.2 592.2 567.6 600 568.3 607.5C568.5 609.6 569.3 611.7 565.8 610.4C564.5 609.9 562.8 608 561.8 607C560 605.2 558.4 603.3 556.4 601.8C554.2 600.1 551.9 599.1 549.2 598.6C545 597.8 537.4 598.3 537 592.3C536.9 590.4 533.9 590.4 534 592.3C534.3 596.2 536.8 598.8 540.4 600.1C543.2 601.1 546.3 600.9 549.2 601.6C552.8 602.5 555.2 604.4 557.7 607C560.2 609.5 564.5 615.1 568.8 614.3C572.4 613.6 571.6 609.5 571.3 606.8C570.2 597.2 565.1 587.7 555.7 584C547.8 580.9 536.4 582.7 534 592C533.4 593.8 536.3 594.6 536.8 592.7Z" fill="#161616"/>
<path d="M576.7 579.7C580.8 574.2 590.1 576.4 594.4 580.1C596.9 582.2 598.6 585.1 599.4 588.3C599.6 589.3 600.1 591.4 599.8 592.5C598.8 595.4 596.7 594.5 594.9 593.1C592.4 591.2 590.5 588.5 587.4 587.3C585.9 586.7 584.4 586.6 582.8 586.7C581.3 586.7 579.9 587.1 578.4 586.9C575.6 586.5 571.7 583.9 576.4 580.3C577.9 579.1 575.8 577 574.3 578.2C572 580 570.8 582.7 571.8 585.6C573.2 589.4 576.8 590.2 580.5 590C584.2 589.8 586.6 589.9 589.6 592.4C591 593.6 592.2 595 593.8 596.1C595.9 597.6 599 599 601.3 596.9C606.6 592 600.5 581.1 596.3 577.7C590.3 572.8 579.3 571.4 574.3 578.3C573 579.7 575.6 581.2 576.7 579.7Z" fill="#161616"/>
<path d="M542.6 584.4C549.1 582.3 559 586.4 563 591.7C563.3 592.1 563.9 591.7 563.6 591.3C559.4 585.6 549.4 581.4 542.4 583.7C541.9 583.8 542.1 584.5 542.6 584.4Z" fill="white"/>
<path d="M577.4 580.1C580.3 576.7 584.5 575.2 588.9 576.1C589.4 576.2 589.6 575.5 589.1 575.4C584.5 574.5 579.9 576 576.9 579.6C576.6 580 577.1 580.5 577.4 580.1Z" fill="white"/>
<path d="M546.3 537.5C547.3 540.1 548 542.7 548.3 545.4C548.5 545.3 548.7 545.2 548.9 545.1C548.4 544.6 547.9 544.3 547.3 544C547 543.9 546.7 544 546.7 544.3C546.7 545.2 546.6 546 546.6 546.9C546.8 546.8 547 546.7 547.2 546.6C545.8 545 544.7 548.6 544.3 549.3C544.1 549.7 544.7 550.1 544.9 549.7C545 549.5 546.3 546.7 546.6 547.1C546.8 547.4 547.2 547.1 547.2 546.8C547.2 545.9 547.3 545.1 547.3 544.2C547.1 544.3 546.9 544.4 546.7 544.5C547.3 544.7 547.7 545 548.1 545.5C548.3 545.7 548.8 545.6 548.7 545.2C548.3 542.4 547.7 539.7 546.6 537.1C546.8 536.9 546.1 537.1 546.3 537.5Z" fill="white"/>
<path d="M577.2 536.2C576.1 538.3 575.5 540.4 575.3 542.8C575.3 543 575.6 543.2 575.8 543.2C577.2 542.8 577.4 543.9 577.5 545.1C577.5 545.4 577.9 545.6 578.1 545.4C578.6 546.2 579 546.9 579.5 547.7C579.4 548.2 580.2 548.4 580.2 547.9C580.4 546.5 579.5 542.9 577.6 544.9C577.8 545 578 545.1 578.2 545.2C578.1 544.3 577.9 543.5 577.7 542.6C577.7 542.4 577.5 542.3 577.3 542.3C576.6 542.3 576.1 542.4 575.5 542.6C575.7 542.7 575.8 542.8 576 543C576.1 540.8 576.7 538.8 577.8 536.8C578.1 536.1 577.4 535.7 577.2 536.2Z" fill="white"/>
<path d="M639.9 476.9C641.3 486.5 644 501.7 649.6 519.7C661.4 557.3 675.3 573.4 693.7 617C698.3 627.9 704.8 644.3 711.2 665C723.1 668.9 745.2 674.2 772.2 669.5C816.6 661.8 842.7 632.4 850 623.5C834.8 595.5 819.5 565.2 804.6 532.7C789.8 500.5 776.9 469.5 765.7 440C756.3 436.5 731.7 428.7 701.5 436.1C665.4 444.8 645.5 469.5 639.9 476.9Z" fill="#65C3C8"/>
<path opacity="0.13" d="M727.7 432.7C731.5 440.7 736.3 451.6 741.4 464.8C757.4 506.8 763.2 541.3 765.3 553.6C769.8 579 773.7 618.4 767.3 669C781.2 668.6 791.5 665.4 798 662.9C816.6 655.5 830.1 642.6 843.1 630.1C846.1 627.3 848.4 624.8 849.9 623.3C845.6 615.9 839.1 604.3 831.5 589.8C809.5 548 795.1 513.3 783 483.9C778.7 473.6 772.8 458.8 765.9 440.9C760.4 438.6 753.5 436.3 745.4 434.8C738.8 433.5 732.8 432.9 727.7 432.7Z" fill="#494949"/>
<path opacity="0.1" d="M793.9 512C795.6 529.9 797 544.9 798 555.7C801.8 598 802.5 609.7 802.8 617.2C803.6 634.9 803.6 649.4 803.5 658.9C809.7 656.7 817.7 653.1 826 647.3C836.4 640 843.4 632 847.9 626.1C829.9 588 811.9 550 793.9 512Z" fill="#494949"/>
<path d="M722.9 415.1C718.1 416.5 715.5 423.4 713.9 430.5C710.7 445 712.4 457.4 713 461.7C715.9 480.8 721.1 495.1 722.8 499.8C727.2 511.4 733.2 526.9 746.3 543.4C753.8 552.8 760.2 560.9 772 566.9C778.9 570.5 793.2 577.8 807.9 572C808.6 571.7 823 565.8 826.7 553.2C827.5 550.4 827.7 547.6 828 542.1C828.2 538.8 828.3 533 827.6 525.8C826.6 516.3 824.5 508.9 822.9 503.6C815.8 480.1 812.3 468.4 804.9 458.2C798.8 449.8 791.9 440.2 780.5 438.9C779.5 438.8 768 437.7 761.2 445.7C756.5 451.3 756.8 458.2 756.9 462.8C757.2 471.6 760.6 477.9 765.9 487.6C771.2 497.2 773.3 498.4 779.6 509.8C788.2 525.4 787.3 526.9 786.9 527.3C785.2 528.8 778.4 524.1 776.9 523C775.5 522 773.5 520.6 771 517.9C763.2 509.2 758.6 496.1 758.6 496.1C754.5 488 749.1 476.5 743.6 461.9C745.3 455.4 747.9 450.8 750 447.8C753.4 443 757.2 439.7 758.1 433.7C758.5 431.4 758.3 429.4 758.1 428.1C759.8 426.5 760.3 424.1 759.4 422.1C758.3 419.8 755.6 418.7 753 419.5C753 419.2 752.7 416.6 750.4 415.2C748.5 414 745.9 414.2 744 415.6C741 413.3 738.5 412.7 736.7 412.6C734.6 412.5 733.6 413 728.6 413.9C724.4 415 724.1 414.8 722.9 415.1Z" fill="white"/>
<path d="M748 457.3C750.7 450.6 754.1 444.5 757.8 438.3C759.7 435.1 761.9 431.1 759.3 427.6C753.4 420 745.4 429.7 742.9 434.7C742 436.4 744.6 437.9 745.5 436.2C747 433.2 748.7 429.5 752.2 428.5C753.2 428 754.2 428 755.3 428.3C755.6 430.6 755.9 432.9 756.3 435.2C756 436.5 754.2 438.6 753.5 439.8C750.3 445.1 747.7 450.7 745.3 456.4C744.4 458.3 747.3 459 748 457.3Z" fill="black"/>
<path d="M715.3 470.2C713.8 459.5 713.6 448.6 714.8 437.9C715.9 428.1 718 413.2 731.6 416C733.5 416.4 734.3 413.5 732.4 413.1C721.7 410.9 715 418.5 713.2 428.2C710.5 442.3 710.4 456.7 712.4 471C712.7 472.9 715.6 472.1 715.3 470.2Z" fill="black"/>
<path d="M727.8 424.1C728.9 421.5 730.1 418.8 732.2 416.8C735.8 413.3 740.4 415.2 744.3 417.1C746 418 747.5 415.4 745.8 414.5C741.7 412.4 737.1 410.4 732.7 412.7C728.9 414.7 726.9 418.8 725.3 422.5C724.5 424.4 727.1 425.9 727.8 424.1Z" fill="black"/>
<path d="M736.7 425C740.4 420.2 745.3 415.2 751.7 419C753.4 420 754.9 417.4 753.2 416.4C745.6 411.9 739.2 416.8 734.6 422.8C733.4 424.4 735.5 426.5 736.7 425Z" fill="black"/>
<path d="M743.4 427.2C745.3 425.2 747.3 423.1 749.9 422.1C753 420.8 758.7 421.6 757.5 426.3C757.1 428.2 759.9 429 760.4 427.1C761.4 423 758.7 419.2 754.6 418.5C749.1 417.5 744.8 421.5 741.3 425.1C740 426.5 742.1 428.6 743.4 427.2Z" fill="black"/>
<path d="M744.6 455.8C741.1 463.3 745.4 470.9 748.4 477.8C752.6 487.5 757 497.2 762.4 506.2C769.4 518 784.6 539.2 800.5 527.1C802 525.9 800.5 523.3 799 524.5C783.7 536.2 769.5 512.6 763.3 501.7C759.7 495.3 756.5 488.7 753.5 482C750.5 475.3 743.8 464.8 747.3 457.3C748 455.6 745.4 454 744.6 455.8Z" fill="black"/>
<path d="M757.5 448.2C748.7 478.1 775.7 501.3 785.6 526.9C786.3 528.7 789.2 527.9 788.5 526.1C778.9 501.3 751.9 477.9 760.4 449C760.9 447.1 758 446.3 757.5 448.2Z" fill="black"/>
<path d="M712.3 469.4C717.4 497.4 729.3 523.9 746.8 546.4C755.3 557.2 765 567.7 778.4 572.1C789.8 575.8 805.5 577.7 816.1 570.8C827.7 563.4 829.2 548.3 829.7 535.8C829.8 533.9 826.8 533.9 826.7 535.8C826.1 551.9 822.5 569.7 803.4 572C785.8 574.1 769.4 567.1 757.5 554.4C735.4 530.9 720.9 500.2 715.1 468.6C714.9 466.7 712 467.5 712.3 469.4Z" fill="black"/>
<path d="M759.5 452.2C762.7 439.4 778.1 438.5 787.7 444.1C797.5 449.8 804.2 460.1 809.1 470C814.2 480.4 817.9 491.6 821.5 502.6C825.6 515.2 828.7 528.4 826.6 541.7C826.3 543.6 829.2 544.4 829.5 542.5C831.9 527.3 828.1 512.6 823.2 498.2C818.7 485.1 814.3 471.6 806.8 459.8C800.5 449.8 791.1 439.4 778.7 437.7C769.1 436.4 758.9 441.6 756.5 451.4C756.1 453.3 759 454.1 759.5 452.2Z" fill="black"/>
<path opacity="0.1" d="M726.6 413.8C734.6 410.6 742.4 414.1 744.3 415C738.7 422.4 726.8 440.3 725.8 465.6C724.3 501.6 745.8 525.5 753.4 534C763.2 544.9 776 559.1 792.5 557.1C801.8 556 810.6 549.8 815.1 541.9C819.6 534 819.3 525.4 813.9 503.2C805.6 469.6 796.5 449.9 797.8 449.3C799.1 448.7 809.9 465.6 818 486.8C818.8 489 825.5 506.8 827.9 531.3C829.4 546.4 828.1 552.6 825 558.1C820.2 566.6 812.4 570.4 809.4 571.7C797.3 576.8 785.7 573.2 780.2 571.3C760.5 564.7 750 548.7 739.4 532.6C723.1 507.7 718.6 486.4 714.3 465.9C711.3 451.7 709.3 435.2 716.8 423.1C718.1 420.6 721 416.1 726.6 413.8Z" fill="#494949"/>
<path d="M582.2 365.1C581.9 369.8 583.6 375.1 587.2 385.7C591.2 397.6 595.5 410.3 606.3 422.8C613.2 430.8 621.6 440.6 635.9 443.4C647.2 445.6 656.7 442.4 661.5 440.4C662.6 443.4 664.1 446.6 666 449.9C671 458.7 677.2 464.9 682.1 469C685.8 468.6 693 467.1 699.2 461.5C704 457.1 706.3 451.9 707.7 448.5C709.4 444.5 710.3 441 710.7 438.5C707.7 436.7 704.4 434.3 701.2 431C691.2 420.8 688.5 408.7 687.7 402.9C689 391.4 690.4 379.8 691.7 368.3C693.2 368.5 696.4 368.7 699.2 366.8C702.3 364.7 702.9 361.2 703.7 357.3C704.5 353.4 705.4 348.4 703.2 342.7C702.2 340.2 699 332.2 692.2 331.7C687.6 331.3 682.9 334.4 680.2 339.2C674.4 333.6 662 323.7 644.6 322.1C614.5 319.3 583.9 342.8 582.2 365.1Z" fill="white"/>
<path d="M626.6 410.8C625.8 412.9 628.1 415.9 629.8 417.4C634.5 421.5 642.8 421.3 648.8 418.5C657.2 414.6 659.9 406.2 661.1 402.4C662.5 398.2 664.3 392.7 661.4 387.8C658.9 383.5 654.5 382 652.8 381.5C651.1 385 649.8 387.6 648.8 389.3C647.6 391.4 647.2 392.1 646.5 393.7C645.5 395.8 645.4 396.6 644 398.5C638.3 405.9 630.5 408.6 630.5 408.6C628.7 409 627.1 409.4 626.6 410.8Z" fill="black"/>
<path d="M583.8 377.1C591.7 401.8 601.6 430.6 627.1 442.2C637.5 446.9 649.9 447.8 660.5 443.2C672.4 438.1 679.4 426.3 684.2 414.9C690.5 400 693.2 383.8 692.2 367.7C692.1 365.8 689.1 365.8 689.2 367.7C690.2 384.5 687.2 401.4 680.1 416.7C673.2 431.6 662.3 443.5 644.8 443.3C609.6 442.9 595.3 404.1 586.5 376.4C586.1 374.4 583.3 375.2 583.8 377.1Z" fill="black"/>
<path d="M681.3 342C681.4 336 687.6 332.4 693.1 334.1C698.2 335.8 701.4 340.8 702.5 345.8C703.5 350.6 703.1 356.2 701.6 360.8C700.4 364.6 698.9 366.6 694.3 366.6C692.7 366.6 691.1 366 689.4 366C687.5 366 687.5 369 689.4 369C692.8 369 696.1 370.6 699.4 368.9C701.8 367.7 703.2 365.3 704.2 362.8C706.8 356 707.1 346.8 703.8 340.1C701.1 334.6 695.3 329.9 688.9 330.6C683 331.2 678.4 336 678.3 341.9C678.3 343.9 681.3 343.9 681.3 342Z" fill="black"/>
<path d="M687.2 396.8C686.9 413.3 694.2 429.1 707.2 439.4C708.7 440.6 710.8 438.5 709.3 437.3C696.9 427.5 689.9 412.7 690.2 396.8C690.2 394.9 687.2 394.9 687.2 396.8Z" fill="black"/>
<path d="M661.4 441.6C665.2 452.1 671.4 461.3 679.7 468.7C681.1 470 683.3 467.9 681.8 466.6C673.8 459.5 667.9 450.8 664.2 440.8C663.6 439 660.7 439.8 661.4 441.6Z" fill="black"/>
<path d="M680.4 469.7C689 472.8 697.6 465.5 702.9 459.4C708.5 453 713.4 444.7 711 436C710.5 434.1 707.6 434.9 708.1 436.8C710.1 444.4 705.6 451.8 700.7 457.3C696.1 462.5 688.6 469.5 681.1 466.8C679.4 466.1 678.6 469 680.4 469.7Z" fill="black"/>
<path d="M595 366.6C593.7 362.9 596.7 358.9 598.9 356.3C602.2 352.2 607.3 351.1 611.1 355.3C615.5 360.1 616.7 368.7 617.3 374.9C617.7 379.2 616.2 384.7 618.7 388.5C621.4 392.6 626.4 395 631.1 395.9C633 396.3 633.8 393.4 631.9 393C629.4 392.5 627.2 391.7 625 390.3C621.4 387.9 620.6 385.3 620.5 381C620.4 377.3 620.3 373.7 619.7 370C618.7 363.9 617 356.1 612 352C607.8 348.5 602.6 348.6 598.5 352.1C594.6 355.5 590.1 362 592 367.3C592.8 369.2 595.7 368.4 595 366.6Z" fill="black"/>
<path d="M622.7 345C623.4 332.9 638.5 328.5 645.5 338.4C646.6 340 649.2 338.5 648.1 336.9C639.4 324.5 620.6 329.8 619.7 345C619.6 346.9 622.6 346.9 622.7 345Z" fill="black"/>
<path d="M609.1 374.6C607.7 372.7 606.9 370.6 606.8 368.3C606 368.7 605.3 369.2 604.5 369.6C606.8 371.1 608 373.5 607.9 376.2C608.5 375.7 609.2 375.2 609.8 374.8C607.3 373.9 605.7 371.1 606.2 368.5C605.5 368.8 604.7 369.1 604 369.4C605.2 370.1 606.2 371.1 606.9 372.4C607.2 373 607.4 373.6 607.5 374.3C607.5 374.8 607.5 374.2 607.4 374C607.2 373.6 607 373.3 606.8 372.9C606 371.1 603.4 372.7 604.2 374.4C604.8 375.8 605.8 377.3 607.6 377.4C609.1 377.5 610.4 376.5 610.6 375C610.9 371.7 608.3 368.4 605.6 366.9C604.8 366.4 603.6 366.8 603.4 367.8C602.6 372.1 605 376.3 609.1 377.8C610.1 378.1 611 377.3 611 376.4C611.1 372.6 609.3 369.2 606.1 367.2C605.2 366.6 603.8 367.4 603.8 368.5C603.9 371.3 604.8 374 606.5 376.3C607.7 377.7 610.3 376.2 609.1 374.6Z" fill="black"/>
<path d="M637.1 355.3C636.6 354.7 636.2 354 636 353.2C636 353 635.8 351.8 636 351.7C636.2 351.6 636.7 353.2 636.8 353.3C637 354.1 636.9 355 636.5 355.7C637.2 355.5 637.9 355.3 638.6 355.2C636.1 353.8 634.9 351.2 635.3 348.4C634.5 348.8 633.8 349.3 633 349.7C635.8 350.9 637.4 353.8 636.7 356.8C637.3 356.5 637.9 356.1 638.5 355.8C637 355.3 635.8 354 635.5 352.4C635.5 352.3 635.5 351.4 635.4 351.4C635.2 351.5 635 351.6 634.7 351.7C634.8 351.9 635 352.2 635.1 352.4C635.5 353.5 635.5 354.6 635.4 355.8C636.3 355.4 637.1 355.1 638 354.7C637.1 354 636.4 353.2 635.9 352.1C635 350.4 632.4 351.9 633.3 353.6C633.9 354.8 634.8 355.9 635.9 356.8C637 357.7 638.3 357.1 638.5 355.7C638.7 353.7 638.5 351 637 349.5C635.8 348.3 633.6 348.2 632.8 350C631.2 353.5 634.6 357.6 637.7 358.7C638.5 359 639.4 358.4 639.5 357.7C640.6 353.5 638.5 348.9 634.4 347.2C633.3 346.7 632.3 347.3 632.1 348.5C631.6 352.3 633.6 356 636.9 357.9C637.5 358.3 638.6 358.1 639 357.4C639.8 355.5 640 353.6 639.3 351.7C638.7 350.2 637.4 348.6 635.7 348.8C631.3 349.3 633.2 355.6 635 357.6C636.3 358.9 638.4 356.7 637.1 355.3Z" fill="black"/>
<path d="M663.2 441.3C663.2 441.4 663.2 441.4 663.1 441.5C663.7 441.2 664.3 440.8 664.9 440.5C664.8 440.5 664.7 440.4 664.6 440.4C664.9 441.1 665.2 441.9 665.5 442.6C665.7 442.2 668.4 440.9 669.2 440.2C671 438.7 672.5 436.7 673.9 434.8C677 430.7 679.3 426.2 681.2 421.5C680.2 421.2 679.3 421 678.3 420.7C675.3 429.3 673.2 441.3 664.8 446.4C665.5 447.1 666.2 447.8 666.9 448.5C668.9 445.5 670.9 442.4 672.9 439.4C673.8 438 671.7 436.3 670.5 437.6C668.9 439.3 667.2 441.1 665.6 442.8C666.3 443.5 667 444.2 667.7 444.9C669.2 443.1 670.6 441.2 671.9 439.3C672.9 437.9 670.7 436.2 669.5 437.5C668.1 439 666.7 440.1 664.9 441C665.7 441.4 666.4 441.9 667.2 442.3C667.2 442 667.1 441.7 667.1 441.4C666.9 439.5 663.9 439.5 664.1 441.4C664.1 441.7 664.2 442 664.2 442.3C664.3 443.4 665.4 444.2 666.5 443.6C668.5 442.5 670.1 441.3 671.7 439.6C670.9 439 670.1 438.4 669.3 437.8C668.1 439.5 666.9 441.2 665.6 442.8C664.4 444.3 666.4 446.4 667.7 444.9C669.3 443.2 671 441.4 672.6 439.7C671.8 439.1 671 438.5 670.2 437.9C668.2 440.9 666.2 444 664.2 447C663.4 448.3 665 449.8 666.3 449.1C675.5 443.5 677.9 431.1 681.2 421.6C681.8 419.7 679 419.1 678.3 420.8C676.2 425.9 673.5 430.9 669.9 435.1C668.2 437.1 665.5 438.2 663.9 440C663.5 440.4 663.1 440.5 662.9 441C662.4 441.9 662.8 442.8 663.8 443.2C663.9 443.2 664 443.3 664.1 443.3C664.9 443.6 665.7 443 665.9 442.3C665.9 442.2 665.9 442.2 666 442.1C666.8 440.3 663.9 439.5 663.2 441.3Z" fill="black"/>
<path d="M674.3 438.3C675.2 437.3 675.8 436.3 676.1 435.1C676.6 433.3 674.3 432.7 673.4 433.9C671.3 436.7 669.2 439.5 667.1 442.3C665.9 443.8 668.5 445.3 669.7 443.8C671.8 441 673.9 438.2 676 435.4C675.1 435 674.2 434.6 673.3 434.2C673.1 434.9 672.8 435.5 672.3 436.1C670.9 437.7 673.1 439.8 674.3 438.3Z" fill="black"/>
<path d="M628.1 413.5C625.3 407.9 628.3 405.8 633.9 404.3C634.6 404.1 635.3 404 635.9 403.7C638.3 402.6 639.7 400.2 640.7 397.9C642.3 394.5 643.2 390.8 645.3 387.7C649.7 381 657.5 381.3 660 389.3C662.5 397.3 659.4 406.2 654.1 412.3C651.5 415.3 648.3 418.1 644.5 419.4C641.2 420.6 638.3 420.2 635.1 418.8C632.8 417.8 628.6 415.8 628 413.2C627.6 411.3 624.7 412.1 625.1 414C626.2 419.2 634 422.4 638.7 423.1C643.8 423.9 648.6 421.4 652.5 418.2C661.2 411 666.6 398.3 662.4 387.3C657.9 375.4 645.7 379.8 641.2 389.2C639.8 392.1 639.1 397 636.8 399.1C633.9 401.8 630.2 400.8 627.2 402.9C623 405.9 623.4 411.2 625.5 415.3C626.4 416.8 629 415.3 628.1 413.5Z" fill="black"/>
<path d="M626.1 410.4C641.6 410 649.1 395.6 652.5 382.4C653 380.5 650.1 379.7 649.6 381.6C646.6 393.4 640.1 407 626.1 407.4C624.2 407.5 624.2 410.5 626.1 410.4Z" fill="black"/>
<path d="M585 375.5C583.2 376.5 572.3 364.6 567.7 348.7C564.3 337.1 565.3 326.8 566.5 320.3C568.2 315.1 570.6 309.5 573.9 303.8C588.1 279.4 610.5 267.9 622.1 263C619.7 265.3 616.9 268.3 614.3 272.1C610.7 277.1 608.4 281.8 606.9 285.7C610.3 282.8 614.2 279.9 618.4 277.1C627.8 270.8 636.9 266.3 644.8 263.1C643.6 268.2 642.3 273.3 641.1 278.3C643.9 276.7 647.8 274.4 652.6 272.1C657.9 269.6 668.8 264.4 670.5 266.7C671 267.4 670.4 268.2 669.5 271.1C668.3 274.9 667.9 278.1 667.7 280.2C670.8 279.7 674.3 279.3 678.1 279.2C682.3 279 686.1 279.2 689.5 279.5C688.3 284.1 687.1 288.6 685.9 293.2C688.3 294.1 691.7 295.8 695.2 298.6C704.6 306.3 707.3 316.7 708 320.8C709.5 330.6 707.1 338.8 705.3 343.3C700.5 333.1 691 329.1 685.6 331.6C682.3 333.1 678.5 337.9 678.9 342.8C679 343.9 679.3 344.9 679.6 345.6C676.1 342.4 670.8 338.1 663.9 334.1C657 330.1 649.3 325.6 639.1 324.3C619.9 321.8 604.9 332.3 600.9 335.2C594.7 339.6 584.6 346.7 582.8 358C581 367.5 586.4 374.8 585 375.5Z" fill="#161616"/>
<path opacity="0.11" d="M661.1 331.6C664.2 338.6 668.4 349.5 670.7 363.2C673.1 376.8 676.1 394.3 668.8 413.7C666.3 420.3 660.4 433 646.4 444.9C649.7 444.8 655.4 444.2 661.4 441C671.2 435.9 675.5 427.4 676.8 424.4C681.5 429 687.8 436.2 692.6 446.4C695.3 452.1 697 457.4 698 461.8C700.7 459.4 705.7 454.2 708 446C708.9 442.8 709.2 439.9 709.2 437.5C703.4 434.3 699.7 430.4 697.6 427.9C696.7 426.8 687.8 415.6 688.3 400.1C688.5 394.5 689.7 394.4 690.6 385.8C691.4 378.1 691 371.6 690.6 367.3C695.7 369.4 698.3 368.4 699.5 367.7C701.8 366.3 702.4 363.8 704.5 351.1C705.6 344.3 706.2 340.9 706.4 339.1C707.6 329.4 708.2 324.5 707.6 320.6C705.9 309.5 698.8 302.1 696.4 299.8C692.4 295.9 688.3 293.7 685.6 292.5C686.8 288.3 687.9 284 689.1 279.8C683.4 286.5 678.1 291.1 674.5 294.1C665.5 301.3 660.3 303 654.1 309.9C649.2 315.3 646.4 320.8 644.8 324.5C650.3 327 655.7 329.3 661.1 331.6Z" fill="#494949"/>
<path opacity="0.17" d="M619.9 264.1C616.5 265.6 608.5 269.8 602.9 278.7C601.5 280.9 598.4 286.4 597.5 294.1C596.5 302.6 598.6 309.3 599.8 312.6C600.2 304.3 602.2 290.9 610.2 277.1C613.3 271.9 616.7 267.6 619.9 264.1Z" fill="#494949"/>
<path opacity="0.08" d="M690.6 367.8C690.3 367.7 689.7 368.8 687.5 376.4C684.5 386.7 682.9 394.3 682 398.1C680.7 403.6 678.5 411.4 674.4 420.8C681.5 422.2 688.6 423.6 695.7 424.9C693.1 419.2 690 411 688.8 400.8C686.9 383.3 691.6 368 690.6 367.8Z" fill="#494949"/>
</svg>
